<svg xmlns="http://www.w3.org/2000/svg" width="1012" height="556" fill="none" viewBox="0 0 1012 556"><rect width="1012" height="556" fill="url(#paint0_linear_0_1)" rx="90"/><path fill="#000" d="M622 278C622 418.28 508.28 532 368 532C227.72 532 114 418.28 114 278C114 137.72 227.72 24 368 24C508.28 24 622 137.72 622 278Z"/><path fill="#fff" d="M591 278C591 401.16 491.16 501 368 501C244.84 501 145 401.16 145 278C145 154.84 244.84 55 368 55C491.16 55 591 154.84 591 278Z"/><path fill="#000" d="M450 271.5C450 316.511 413.511 353 368.5 353C323.489 353 287 316.511 287 271.5C287 226.489 323.489 190 368.5 190C413.511 190 450 226.489 450 271.5Z"/><path fill="#000" d="M127 260H325V291H127V260Z"/><path fill="#000" d="M423 260H621V291H423V260Z"/><path fill="url(#paint1_linear_0_1)" d="M494.818 94.688V172H480.482V94.688H452.45V82.656H522.85V94.688H494.818Z"/><path fill="url(#paint2_linear_0_1)" d="M535.6 172L529.2 82.656H541.744L546.352 157.536H547.376L557.488 104.288H571.696L581.808 157.536H582.832L584.24 134.624L587.568 82.656H599.6L593.2 172H574L564.912 120.288H563.888L554.8 172H535.6Z"/><path fill="url(#paint3_linear_0_1)" d="M612.99 172V161.12H633.982V93.536H612.99V82.656H669.31V93.536H648.318V161.12H669.31V172H612.99Z"/><path fill="url(#paint4_linear_0_1)" d="M725.068 94.688V172H710.732V94.688H682.7V82.656H753.1V94.688H725.068Z"/><path fill="url(#paint5_linear_0_1)" d="M797.21 173.536C785.861 173.536 777.413 169.525 771.866 161.504C766.405 153.483 763.674 142.091 763.674 127.328C763.674 112.565 766.405 101.173 771.866 93.152C777.413 85.1307 785.861 81.12 797.21 81.12C801.562 81.12 805.317 81.7173 808.474 82.912C811.717 84.0213 814.49 85.6 816.794 87.648C819.098 89.6107 821.018 91.9573 822.554 94.688C824.175 97.3333 825.498 100.192 826.522 103.264L813.594 107.616C812.911 105.568 812.143 103.648 811.29 101.856C810.437 100.064 809.37 98.528 808.09 97.248C806.81 95.968 805.274 94.944 803.482 94.176C801.775 93.408 799.642 93.024 797.082 93.024C790.767 93.024 786.159 95.456 783.258 100.32C780.357 105.099 778.906 111.584 778.906 119.776V134.88C778.906 143.072 780.357 149.6 783.258 154.464C786.159 159.243 790.767 161.632 797.082 161.632C799.642 161.632 801.775 161.248 803.482 160.48C805.274 159.712 806.81 158.688 808.09 157.408C809.37 156.128 810.437 154.592 811.29 152.8C812.143 151.008 812.911 149.088 813.594 147.04L826.522 151.392C825.498 154.464 824.175 157.365 822.554 160.096C821.018 162.741 819.098 165.088 816.794 167.136C814.49 169.099 811.717 170.677 808.474 171.872C805.317 172.981 801.562 173.536 797.21 173.536Z"/><path fill="url(#paint6_linear_0_1)" d="M886.248 132.704H856.552V172H842.216V82.656H856.552V120.672H886.248V82.656H900.584V172H886.248V132.704Z"/><path fill="url(#paint7_linear_0_1)" d="M498.377 321V231.656H531.785C540.318 231.656 546.804 234.045 551.241 238.824C555.764 243.603 558.025 250.173 558.025 258.536C558.025 266.899 555.764 273.469 551.241 278.248C546.804 283.027 540.318 285.416 531.785 285.416H512.713V321H498.377ZM512.713 273.512H529.609C538.484 273.512 542.921 269.416 542.921 261.224V255.72C542.921 247.613 538.484 243.56 529.609 243.56H512.713V273.512Z"/><path fill="url(#paint8_linear_0_1)" d="M578.199 321V231.656H592.535V308.968H633.239V321H578.199Z"/><path fill="url(#paint9_linear_0_1)" d="M700.261 321L693.477 297.192H665.061L658.277 321H643.685L669.797 231.656H689.381L715.493 321H700.261ZM679.781 246.12H678.757L667.749 285.288H690.789L679.781 246.12Z"/><path fill="url(#paint10_linear_0_1)" d="M749.107 321V287.336L719.411 231.656H735.411L746.803 253.928L756.019 273H756.787L766.131 253.928L777.523 231.656H793.139L763.443 287.336V321H749.107Z"/><path fill="url(#paint11_linear_0_1)" d="M832.257 322.536C824.492 322.536 817.964 321.171 812.673 318.44C807.382 315.709 803.03 312.083 799.617 307.56L808.833 298.728C812.246 302.824 815.873 305.853 819.713 307.816C823.553 309.693 827.905 310.632 832.769 310.632C838.401 310.632 842.71 309.352 845.697 306.792C848.769 304.232 850.305 300.563 850.305 295.784C850.305 291.944 849.196 289 846.977 286.952C844.758 284.819 840.961 283.283 835.585 282.344L825.857 280.808C821.59 280.125 818.006 279.016 815.105 277.48C812.204 275.859 809.857 273.981 808.065 271.848C806.273 269.629 804.95 267.197 804.097 264.552C803.329 261.821 802.945 258.963 802.945 255.976C802.945 247.528 805.676 241.128 811.137 236.776C816.598 232.339 824.108 230.12 833.665 230.12C840.748 230.12 846.764 231.272 851.713 233.576C856.748 235.795 860.801 238.952 863.873 243.048L854.913 252.008C852.438 249.021 849.494 246.632 846.081 244.84C842.753 242.963 838.614 242.024 833.665 242.024C828.374 242.024 824.321 243.176 821.505 245.48C818.774 247.699 817.409 250.984 817.409 255.336C817.409 259.005 818.476 261.907 820.609 264.04C822.828 266.088 826.71 267.581 832.257 268.52L841.729 270.184C849.75 271.635 855.596 274.579 859.265 279.016C862.934 283.368 864.769 288.701 864.769 295.016C864.769 299.112 864.044 302.867 862.593 306.28C861.228 309.693 859.137 312.595 856.321 314.984C853.59 317.373 850.177 319.251 846.081 320.616C842.07 321.896 837.462 322.536 832.257 322.536Z"/><path fill="url(#paint12_linear_0_1)" d="M421.627 470V380.656H455.035C463.568 380.656 470.054 383.045 474.491 387.824C479.014 392.603 481.275 399.173 481.275 407.536C481.275 415.899 479.014 422.469 474.491 427.248C470.054 432.027 463.568 434.416 455.035 434.416H435.963V470H421.627ZM435.963 422.512H452.859C461.734 422.512 466.171 418.416 466.171 410.224V404.72C466.171 396.613 461.734 392.56 452.859 392.56H435.963V422.512Z"/><path fill="url(#paint13_linear_0_1)" d="M526.025 471.536C520.393 471.536 515.486 470.512 511.305 468.464C507.209 466.331 503.796 463.301 501.065 459.376C498.42 455.451 496.457 450.629 495.177 444.912C493.897 439.195 493.257 432.667 493.257 425.328C493.257 418.075 493.897 411.589 495.177 405.872C496.457 400.069 498.42 395.205 501.065 391.28C503.796 387.355 507.209 384.368 511.305 382.32C515.486 380.187 520.393 379.12 526.025 379.12C531.657 379.12 536.521 380.187 540.617 382.32C544.798 384.368 548.212 387.355 550.857 391.28C553.588 395.205 555.593 400.069 556.873 405.872C558.153 411.589 558.793 418.075 558.793 425.328C558.793 432.667 558.153 439.195 556.873 444.912C555.593 450.629 553.588 455.451 550.857 459.376C548.212 463.301 544.798 466.331 540.617 468.464C536.521 470.512 531.657 471.536 526.025 471.536ZM526.025 459.632C532.425 459.632 536.948 457.243 539.593 452.464C542.238 447.6 543.561 441.029 543.561 432.752V417.776C543.561 409.584 542.238 403.099 539.593 398.32C536.948 393.456 532.425 391.024 526.025 391.024C519.625 391.024 515.102 393.456 512.457 398.32C509.812 403.099 508.489 409.584 508.489 417.776V432.88C508.489 441.072 509.812 447.6 512.457 452.464C515.102 457.243 519.625 459.632 526.025 459.632Z"/><path fill="url(#paint14_linear_0_1)" d="M599.447 428.912L588.695 442.352V470H574.359V380.656H588.695V423.408H589.335L600.215 408.56L622.103 380.656H638.615L609.175 418.288L639.767 470H623.383L599.447 428.912Z"/><path fill="url(#paint15_linear_0_1)" d="M652.133 470V380.656H708.069V392.688H666.469V418.672H706.533V430.704H666.469V457.968H708.069V470H652.133ZM681.445 374.128L672.869 370.032L684.517 346.992L696.549 352.88L681.445 374.128Z"/><path fill="url(#paint16_linear_0_1)" d="M774.835 427.248L775.219 400.368H774.195L756.275 446.32L738.355 400.368H737.331L737.715 427.248V470H725.043V380.656H742.579L756.275 416.112H757.171L770.995 380.656H787.507V470H774.835V427.248Z"/><path fill="url(#paint17_linear_0_1)" d="M833.025 471.536C827.393 471.536 822.486 470.512 818.305 468.464C814.209 466.331 810.796 463.301 808.065 459.376C805.42 455.451 803.457 450.629 802.177 444.912C800.897 439.195 800.257 432.667 800.257 425.328C800.257 418.075 800.897 411.589 802.177 405.872C803.457 400.069 805.42 395.205 808.065 391.28C810.796 387.355 814.209 384.368 818.305 382.32C822.486 380.187 827.393 379.12 833.025 379.12C838.657 379.12 843.521 380.187 847.617 382.32C851.798 384.368 855.212 387.355 857.857 391.28C860.588 395.205 862.593 400.069 863.873 405.872C865.153 411.589 865.793 418.075 865.793 425.328C865.793 432.667 865.153 439.195 863.873 444.912C862.593 450.629 860.588 455.451 857.857 459.376C855.212 463.301 851.798 466.331 847.617 468.464C843.521 470.512 838.657 471.536 833.025 471.536ZM833.025 459.632C839.425 459.632 843.948 457.243 846.593 452.464C849.238 447.6 850.561 441.029 850.561 432.752V417.776C850.561 409.584 849.238 403.099 846.593 398.32C843.948 393.456 839.425 391.024 833.025 391.024C826.625 391.024 822.102 393.456 819.457 398.32C816.812 403.099 815.489 409.584 815.489 417.776V432.88C815.489 441.072 816.812 447.6 819.457 452.464C822.102 457.243 826.625 459.632 833.025 459.632Z"/><path fill="url(#paint18_linear_0_1)" d="M894.287 401.264H893.135V470H880.591V380.656H899.023L925.263 449.392H926.415V380.656H938.959V470H920.527L894.287 401.264Z"/><path fill="#fff" d="M331.189 229L325 244.792V309.336H347V321H359.378L371.056 309.336H388.944L413 285.309V229H331.189ZM404.755 281.181L391 294.92H369L357.322 306.584V294.92H338.755V237.235H404.755V281.181ZM391 253.027V277.033H382.755V253.027H391ZM369 253.027V277.033H360.755V253.027H369Z"/><defs><linearGradient id="paint0_linear_0_1" x1="0" x2="1012" y1="278" y2="278" gradientUnits="userSpaceOnUse"><stop/><stop offset=".745" stop-color="#fff"/></linearGradient><linearGradient id="paint1_linear_0_1" x1="-181.609" x2="1245.08" y1="432" y2="432" gradientUnits="userSpaceOnUse"><stop offset=".15" stop-color="#fff"/><stop offset=".6"/></linearGradient><linearGradient id="paint2_linear_0_1" x1="-181.609" x2="1245.08" y1="432" y2="432" gradientUnits="userSpaceOnUse"><stop offset=".15" stop-color="#fff"/><stop offset=".6"/></linearGradient><linearGradient id="paint3_linear_0_1" x1="-181.609" x2="1245.08" y1="432" y2="432" gradientUnits="userSpaceOnUse"><stop offset=".15" stop-color="#fff"/><stop offset=".6"/></linearGradient><linearGradient id="paint4_linear_0_1" x1="-181.609" x2="1245.08" y1="432" y2="432" gradientUnits="userSpaceOnUse"><stop offset=".15" stop-color="#fff"/><stop offset=".6"/></linearGradient><linearGradient id="paint5_linear_0_1" x1="-181.609" x2="1245.08" y1="432" y2="432" gradientUnits="userSpaceOnUse"><stop offset=".15" stop-color="#fff"/><stop offset=".6"/></linearGradient><linearGradient id="paint6_linear_0_1" x1="-181.609" x2="1245.08" y1="432" y2="432" gradientUnits="userSpaceOnUse"><stop offset=".15" stop-color="#fff"/><stop offset=".6"/></linearGradient><linearGradient id="paint7_linear_0_1" x1="-181.609" x2="1245.08" y1="432" y2="432" gradientUnits="userSpaceOnUse"><stop offset=".15" stop-color="#fff"/><stop offset=".6"/></linearGradient><linearGradient id="paint8_linear_0_1" x1="-181.609" x2="1245.08" y1="432" y2="432" gradientUnits="userSpaceOnUse"><stop offset=".15" stop-color="#fff"/><stop offset=".6"/></linearGradient><linearGradient id="paint9_linear_0_1" x1="-181.609" x2="1245.08" y1="432" y2="432" gradientUnits="userSpaceOnUse"><stop offset=".15" stop-color="#fff"/><stop offset=".6"/></linearGradient><linearGradient id="paint10_linear_0_1" x1="-181.609" x2="1245.08" y1="432" y2="432" gradientUnits="userSpaceOnUse"><stop offset=".15" stop-color="#fff"/><stop offset=".6"/></linearGradient><linearGradient id="paint11_linear_0_1" x1="-181.609" x2="1245.08" y1="432" y2="432" gradientUnits="userSpaceOnUse"><stop offset=".15" stop-color="#fff"/><stop offset=".6"/></linearGradient><linearGradient id="paint12_linear_0_1" x1="-181.609" x2="1245.08" y1="432" y2="432" gradientUnits="userSpaceOnUse"><stop offset=".15" stop-color="#fff"/><stop offset=".6"/></linearGradient><linearGradient id="paint13_linear_0_1" x1="-181.609" x2="1245.08" y1="432" y2="432" gradientUnits="userSpaceOnUse"><stop offset=".15" stop-color="#fff"/><stop offset=".6"/></linearGradient><linearGradient id="paint14_linear_0_1" x1="-181.609" x2="1245.08" y1="432" y2="432" gradientUnits="userSpaceOnUse"><stop offset=".15" stop-color="#fff"/><stop offset=".6"/></linearGradient><linearGradient id="paint15_linear_0_1" x1="-181.609" x2="1245.08" y1="432" y2="432" gradientUnits="userSpaceOnUse"><stop offset=".15" stop-color="#fff"/><stop offset=".6"/></linearGradient><linearGradient id="paint16_linear_0_1" x1="-181.609" x2="1245.08" y1="432" y2="432" gradientUnits="userSpaceOnUse"><stop offset=".15" stop-color="#fff"/><stop offset=".6"/></linearGradient><linearGradient id="paint17_linear_0_1" x1="-181.609" x2="1245.08" y1="432" y2="432" gradientUnits="userSpaceOnUse"><stop offset=".15" stop-color="#fff"/><stop offset=".6"/></linearGradient><linearGradient id="paint18_linear_0_1" x1="-181.609" x2="1245.08" y1="432" y2="432" gradientUnits="userSpaceOnUse"><stop offset=".15" stop-color="#fff"/><stop offset=".6"/></linearGradient></defs></svg>